<?xml version="1.0" standalone="no"?><!-- Generator: Gravit.io --><svg xmlns="http://www.w3.org/2000/svg" xmlns:xlink="http://www.w3.org/1999/xlink" style="isolation:isolate" viewBox="0 0 2881 240" width="2881" height="240"><defs><clipPath id="_clipPath_ze2QWURblS9NHCoqhyFEWoKWQqKEswAd"><rect width="2881" height="240"/></clipPath></defs><g clip-path="url(#_clipPath_ze2QWURblS9NHCoqhyFEWoKWQqKEswAd)"><rect width="2881" height="240" style="fill:rgb(129,137,146)"/><line x1="221" y1="129" x2="762" y2="6" vector-effect="non-scaling-stroke" stroke-width="1" stroke="rgb(162,162,162)" stroke-opacity="0.42" stroke-linejoin="miter" stroke-linecap="square" stroke-miterlimit="3"/><line x1="714" y1="0" x2="241" y2="185" vector-effect="non-scaling-stroke" stroke-width="1" stroke="rgb(162,162,162)" stroke-opacity="0.42" stroke-linejoin="miter" stroke-linecap="square" stroke-miterlimit="3"/><line x1="384" y1="0" x2="78" y2="240" vector-effect="non-scaling-stroke" stroke-width="1" stroke="rgb(162,162,162)" stroke-opacity="0.42" stroke-linejoin="miter" stroke-linecap="square" stroke-miterlimit="3"/><line x1="416" y1="0" x2="405" y2="211" vector-effect="non-scaling-stroke" stroke-width="1" stroke="rgb(162,162,162)" stroke-opacity="0.42" stroke-linejoin="miter" stroke-linecap="square" stroke-miterlimit="3"/><line x1="0" y1="121.75" x2="196" y2="24" vector-effect="non-scaling-stroke" stroke-width="1" stroke="rgb(162,162,162)" stroke-opacity="0.42" stroke-linejoin="miter" stroke-linecap="square" stroke-miterlimit="3"/><line x1="203" y1="26" x2="235" y2="182" vector-effect="non-scaling-stroke" stroke-width="1" stroke="rgb(162,162,162)" stroke-opacity="0.42" stroke-linejoin="miter" stroke-linecap="square" stroke-miterlimit="3"/><line x1="62" y1="240" x2="197" y2="24" vector-effect="non-scaling-stroke" stroke-width="1" stroke="rgb(162,162,162)" stroke-opacity="0.42" stroke-linejoin="miter" stroke-linecap="square" stroke-miterlimit="3"/><line x1="0" y1="31" x2="474" y2="240" vector-effect="non-scaling-stroke" stroke-width="1" stroke="rgb(162,162,162)" stroke-opacity="0.42" stroke-linejoin="miter" stroke-linecap="square" stroke-miterlimit="3"/><line x1="0" y1="82" x2="47" y2="165" vector-effect="non-scaling-stroke" stroke-width="1" stroke="rgb(162,162,162)" stroke-opacity="0.42" stroke-linejoin="miter" stroke-linecap="square" stroke-miterlimit="3"/><line x1="0" y1="121.75" x2="47" y2="166" vector-effect="non-scaling-stroke" stroke-width="1" stroke="rgb(162,162,162)" stroke-opacity="0.42" stroke-linejoin="miter" stroke-linecap="square" stroke-miterlimit="3"/><line x1="57" y1="170" x2="221" y2="129" vector-effect="non-scaling-stroke" stroke-width="1" stroke="rgb(162,162,162)" stroke-opacity="0.42" stroke-linejoin="miter" stroke-linecap="square" stroke-miterlimit="3"/><line x1="57" y1="170" x2="230" y2="187" vector-effect="non-scaling-stroke" stroke-width="1" stroke="rgb(162,162,162)" stroke-opacity="0.42" stroke-linejoin="miter" stroke-linecap="square" stroke-miterlimit="3"/><line x1="241" y1="189" x2="405" y2="211" vector-effect="non-scaling-stroke" stroke-width="1" stroke="rgb(162,162,162)" stroke-opacity="0.42" stroke-linejoin="miter" stroke-linecap="square" stroke-miterlimit="3"/><line x1="241" y1="189" x2="435" y2="240" vector-effect="non-scaling-stroke" stroke-width="1" stroke="rgb(162,162,162)" stroke-opacity="0.42" stroke-linejoin="miter" stroke-linecap="square" stroke-miterlimit="3"/><line x1="435" y1="240" x2="448" y2="129" vector-effect="non-scaling-stroke" stroke-width="1" stroke="rgb(162,162,162)" stroke-opacity="0.42" stroke-linejoin="miter" stroke-linecap="square" stroke-miterlimit="3"/><line x1="558" y1="185" x2="424" y2="0" vector-effect="non-scaling-stroke" stroke-width="1" stroke="rgb(162,162,162)" stroke-opacity="0.42" stroke-linejoin="miter" stroke-linecap="square" stroke-miterlimit="3"/><line x1="847" y1="31" x2="435" y2="240" vector-effect="non-scaling-stroke" stroke-width="1" stroke="rgb(162,162,162)" stroke-opacity="0.42" stroke-linejoin="miter" stroke-linecap="square" stroke-miterlimit="3"/><line x1="454" y1="127" x2="558" y2="185" vector-effect="non-scaling-stroke" stroke-width="1" stroke="rgb(162,162,162)" stroke-opacity="0.42" stroke-linejoin="miter" stroke-linecap="square" stroke-miterlimit="3"/><line x1="444" y1="123" x2="206" y2="22" vector-effect="non-scaling-stroke" stroke-width="1" stroke="rgb(162,162,162)" stroke-opacity="0.42" stroke-linejoin="miter" stroke-linecap="square" stroke-miterlimit="3"/><line x1="522" y1="0" x2="558" y2="185" vector-effect="non-scaling-stroke" stroke-width="1" stroke="rgb(162,162,162)" stroke-opacity="0.42" stroke-linejoin="miter" stroke-linecap="square" stroke-miterlimit="3"/><line x1="474" y1="240" x2="714" y2="0" vector-effect="non-scaling-stroke" stroke-width="1" stroke="rgb(162,162,162)" stroke-opacity="0.42" stroke-linejoin="miter" stroke-linecap="square" stroke-miterlimit="3"/><line x1="768" y1="10" x2="722" y2="211" vector-effect="non-scaling-stroke" stroke-width="1" stroke="rgb(162,162,162)" stroke-opacity="0.42" stroke-linejoin="miter" stroke-linecap="square" stroke-miterlimit="3"/><line x1="714" y1="0" x2="837" y2="121.75" vector-effect="non-scaling-stroke" stroke-width="1" stroke="rgb(162,162,162)" stroke-opacity="0.42" stroke-linejoin="miter" stroke-linecap="square" stroke-miterlimit="3"/><line x1="847" y1="121.75" x2="966" y2="10" vector-effect="non-scaling-stroke" stroke-width="1" stroke="rgb(162,162,162)" stroke-opacity="0.42" stroke-linejoin="miter" stroke-linecap="square" stroke-miterlimit="3"/><path d=" M 837 122.875 C 837 120.3224 839.2404 118.25 842 118.25 C 844.7596 118.25 847 120.3224 847 122.875 C 847 125.4276 844.7596 127.5 842 127.5 C 839.2404 127.5 837 125.4276 837 122.875 Z " fill="none" vector-effect="non-scaling-stroke" stroke-width="1" stroke="rgb(255,255,255)" stroke-linejoin="miter" stroke-linecap="square" stroke-miterlimit="3"/><path d=" M 965 6.375 C 965 3.8224 967.2404 1.75 970 1.75 C 972.7596 1.75 975 3.8224 975 6.375 C 975 8.9276 972.7596 11 970 11 C 967.2404 11 965 8.9276 965 6.375 Z " fill="none" vector-effect="non-scaling-stroke" stroke-width="1" stroke="rgb(255,255,255)" stroke-linejoin="miter" stroke-linecap="square" stroke-miterlimit="3"/><path d=" M 763 5.375 C 763 2.8224 765.2404 0.75 768 0.75 C 770.7596 0.75 773 2.8224 773 5.375 C 773 7.9276 770.7596 10 768 10 C 765.2404 10 763 7.9276 763 5.375 Z " fill="none" vector-effect="non-scaling-stroke" stroke-width="1" stroke="rgb(255,255,255)" stroke-linejoin="miter" stroke-linecap="square" stroke-miterlimit="3"/><path d=" M 847 28.625 C 847 26.0724 849.2404 24 852 24 C 854.7596 24 857 26.0724 857 28.625 C 857 31.1776 854.7596 33.25 852 33.25 C 849.2404 33.25 847 31.1776 847 28.625 Z " fill="none" vector-effect="non-scaling-stroke" stroke-width="1" stroke="rgb(255,255,255)" stroke-linejoin="miter" stroke-linecap="square" stroke-miterlimit="3"/><path d=" M 555 189 C 555 186.4474 557.2404 184.375 560 184.375 C 562.7596 184.375 565 186.4474 565 189 C 565 191.5526 562.7596 193.625 560 193.625 C 557.2404 193.625 555 191.5526 555 189 Z " fill="none" vector-effect="non-scaling-stroke" stroke-width="1" stroke="rgb(255,255,255)" stroke-linejoin="miter" stroke-linecap="square" stroke-miterlimit="3"/><path d=" M 444 125 C 444 122.4474 446.2404 120.375 449 120.375 C 451.7596 120.375 454 122.4474 454 125 C 454 127.5526 451.7596 129.625 449 129.625 C 446.2404 129.625 444 127.5526 444 125 Z " fill="none" vector-effect="non-scaling-stroke" stroke-width="1" stroke="rgb(255,255,255)" stroke-linejoin="miter" stroke-linecap="square" stroke-miterlimit="3"/><path d=" M 196 21.625 C 196 19.0724 198.2404 17 201 17 C 203.7596 17 206 19.0724 206 21.625 C 206 24.1776 203.7596 26.25 201 26.25 C 198.2404 26.25 196 24.1776 196 21.625 Z " fill="none" vector-effect="non-scaling-stroke" stroke-width="1" stroke="rgb(255,255,255)" stroke-linejoin="miter" stroke-linecap="square" stroke-miterlimit="3"/><path d=" M 716 215.625 C 716 213.0724 718.2404 211 721 211 C 723.7596 211 726 213.0724 726 215.625 C 726 218.1776 723.7596 220.25 721 220.25 C 718.2404 220.25 716 218.1776 716 215.625 Z " fill="none" vector-effect="non-scaling-stroke" stroke-width="1" stroke="rgb(255,255,255)" stroke-linejoin="miter" stroke-linecap="square" stroke-miterlimit="3"/><path d=" M 231 187 C 231 184.4474 233.2404 182.375 236 182.375 C 238.7596 182.375 241 184.4474 241 187 C 241 189.5526 238.7596 191.625 236 191.625 C 233.2404 191.625 231 189.5526 231 187 Z " fill="none" vector-effect="non-scaling-stroke" stroke-width="1" stroke="rgb(255,255,255)" stroke-linejoin="miter" stroke-linecap="square" stroke-miterlimit="3"/><path d=" M 46 168 C 46 165.4474 48.2404 163.375 51 163.375 C 53.7596 163.375 56 165.4474 56 168 C 56 170.5526 53.7596 172.625 51 172.625 C 48.2404 172.625 46 170.5526 46 168 Z " fill="none" vector-effect="non-scaling-stroke" stroke-width="1" stroke="rgb(255,255,255)" stroke-linejoin="miter" stroke-linecap="square" stroke-miterlimit="3"/></g></svg>